<mxfile host="app.diagrams.net" agent="Mozilla/5.0 (Windows NT 10.0; Win64; x64) AppleWebKit/537.36 (KHTML, like Gecko) Chrome/130.0.0.0 Safari/537.36 Edg/130.0.0.0" version="24.8.6">
  <diagram name="PÃ¡gina-1" id="e6tnlj73MeoIGo1Lp6q1">
    <mxGraphModel dx="1426" dy="747" grid="1" gridSize="10" guides="1" tooltips="1" connect="1" arrows="1" fold="1" page="1" pageScale="1" pageWidth="1169" pageHeight="827" math="0" shadow="0">
      <root>
        <mxCell id="0" />
        <mxCell id="1" parent="0" />
        <mxCell id="34CZIzxD8-mcYaRB7CDS-21" value="&lt;span style=&quot;font-size: 13px;&quot;&gt;Failed authorizer verification&lt;/span&gt;" style="swimlane;whiteSpace=wrap;html=1;" parent="1" vertex="1">
          <mxGeometry x="320" y="94" width="390" height="626" as="geometry" />
        </mxCell>
        <mxCell id="00PjSPJ0xW0J_4Vm_WQb-3" value="" style="edgeStyle=orthogonalEdgeStyle;rounded=0;orthogonalLoop=1;jettySize=auto;html=1;fillColor=#d5e8d4;strokeColor=#82b366;strokeWidth=2;endArrow=block;endFill=1;" edge="1" parent="34CZIzxD8-mcYaRB7CDS-21" source="00PjSPJ0xW0J_4Vm_WQb-1" target="00PjSPJ0xW0J_4Vm_WQb-2">
          <mxGeometry relative="1" as="geometry" />
        </mxCell>
        <mxCell id="00PjSPJ0xW0J_4Vm_WQb-1" value="Client" style="shape=actor;whiteSpace=wrap;html=1;fillColor=#f5f5f5;fontColor=#333333;strokeColor=#666666;verticalAlign=bottom;labelPosition=center;verticalLabelPosition=top;align=center;fontStyle=1" vertex="1" parent="34CZIzxD8-mcYaRB7CDS-21">
          <mxGeometry x="60" y="66" width="40" height="60" as="geometry" />
        </mxCell>
        <mxCell id="00PjSPJ0xW0J_4Vm_WQb-5" value="" style="edgeStyle=orthogonalEdgeStyle;rounded=0;orthogonalLoop=1;jettySize=auto;html=1;fillColor=#d5e8d4;strokeColor=#82b366;strokeWidth=2;endArrow=block;endFill=1;" edge="1" parent="34CZIzxD8-mcYaRB7CDS-21" source="00PjSPJ0xW0J_4Vm_WQb-2" target="00PjSPJ0xW0J_4Vm_WQb-4">
          <mxGeometry relative="1" as="geometry" />
        </mxCell>
        <mxCell id="00PjSPJ0xW0J_4Vm_WQb-2" value="API Gateway" style="rounded=0;whiteSpace=wrap;html=1;fontStyle=1" vertex="1" parent="34CZIzxD8-mcYaRB7CDS-21">
          <mxGeometry x="155" y="71" width="110" height="50" as="geometry" />
        </mxCell>
        <mxCell id="00PjSPJ0xW0J_4Vm_WQb-8" value="" style="edgeStyle=orthogonalEdgeStyle;rounded=0;orthogonalLoop=1;jettySize=auto;html=1;fillColor=#d5e8d4;strokeColor=#82b366;strokeWidth=2;endArrow=block;endFill=1;" edge="1" parent="34CZIzxD8-mcYaRB7CDS-21" source="00PjSPJ0xW0J_4Vm_WQb-4" target="00PjSPJ0xW0J_4Vm_WQb-7">
          <mxGeometry relative="1" as="geometry" />
        </mxCell>
        <mxCell id="00PjSPJ0xW0J_4Vm_WQb-19" style="edgeStyle=orthogonalEdgeStyle;rounded=0;orthogonalLoop=1;jettySize=auto;html=1;entryX=0.5;entryY=1;entryDx=0;entryDy=0;fillColor=#f0a30a;strokeColor=#BD7000;endArrow=ERmandOne;endFill=0;strokeWidth=2;dashed=1;" edge="1" parent="34CZIzxD8-mcYaRB7CDS-21" source="00PjSPJ0xW0J_4Vm_WQb-4" target="00PjSPJ0xW0J_4Vm_WQb-1">
          <mxGeometry relative="1" as="geometry" />
        </mxCell>
        <mxCell id="00PjSPJ0xW0J_4Vm_WQb-4" value="Pix System" style="shape=cube;whiteSpace=wrap;html=1;boundedLbl=1;backgroundOutline=1;darkOpacity=0.05;darkOpacity2=0.1;fillColor=#dae8fc;strokeColor=#6c8ebf;fontStyle=1" vertex="1" parent="34CZIzxD8-mcYaRB7CDS-21">
          <mxGeometry x="150" y="176" width="120" height="80" as="geometry" />
        </mxCell>
        <mxCell id="00PjSPJ0xW0J_4Vm_WQb-10" value="" style="edgeStyle=orthogonalEdgeStyle;rounded=0;orthogonalLoop=1;jettySize=auto;html=1;fillColor=#f0a30a;strokeColor=#BD7000;strokeWidth=2;endArrow=block;endFill=1;" edge="1" parent="34CZIzxD8-mcYaRB7CDS-21" source="00PjSPJ0xW0J_4Vm_WQb-7" target="00PjSPJ0xW0J_4Vm_WQb-9">
          <mxGeometry relative="1" as="geometry" />
        </mxCell>
        <mxCell id="00PjSPJ0xW0J_4Vm_WQb-7" value="Moria (Authorizer)" style="rounded=0;whiteSpace=wrap;html=1;fontStyle=1" vertex="1" parent="34CZIzxD8-mcYaRB7CDS-21">
          <mxGeometry x="155" y="316" width="110" height="50" as="geometry" />
        </mxCell>
        <mxCell id="00PjSPJ0xW0J_4Vm_WQb-15" style="edgeStyle=orthogonalEdgeStyle;rounded=0;orthogonalLoop=1;jettySize=auto;html=1;entryX=0.5;entryY=0;entryDx=0;entryDy=0;fillColor=#f0a30a;strokeColor=#BD7000;strokeWidth=2;endArrow=block;endFill=1;" edge="1" parent="34CZIzxD8-mcYaRB7CDS-21" source="00PjSPJ0xW0J_4Vm_WQb-9" target="00PjSPJ0xW0J_4Vm_WQb-13">
          <mxGeometry relative="1" as="geometry" />
        </mxCell>
        <mxCell id="00PjSPJ0xW0J_4Vm_WQb-16" style="edgeStyle=orthogonalEdgeStyle;rounded=0;orthogonalLoop=1;jettySize=auto;html=1;entryX=0.5;entryY=0;entryDx=0;entryDy=0;fillColor=#f0a30a;strokeColor=#BD7000;strokeWidth=2;endArrow=block;endFill=1;" edge="1" parent="34CZIzxD8-mcYaRB7CDS-21" source="00PjSPJ0xW0J_4Vm_WQb-9" target="00PjSPJ0xW0J_4Vm_WQb-14">
          <mxGeometry relative="1" as="geometry" />
        </mxCell>
        <mxCell id="00PjSPJ0xW0J_4Vm_WQb-9" value="AML/AF error?" style="rhombus;whiteSpace=wrap;html=1;fillColor=#fff2cc;strokeColor=#d6b656;fontStyle=1" vertex="1" parent="34CZIzxD8-mcYaRB7CDS-21">
          <mxGeometry x="170" y="416" width="80" height="80" as="geometry" />
        </mxCell>
        <mxCell id="00PjSPJ0xW0J_4Vm_WQb-13" value="Throw Error" style="rounded=0;whiteSpace=wrap;html=1;fontStyle=1;fillColor=#f8cecc;strokeColor=#b85450;" vertex="1" parent="34CZIzxD8-mcYaRB7CDS-21">
          <mxGeometry x="80" y="536" width="110" height="50" as="geometry" />
        </mxCell>
        <mxCell id="00PjSPJ0xW0J_4Vm_WQb-14" value="Quarentine" style="rounded=0;whiteSpace=wrap;html=1;fontStyle=1;fillColor=#f5f5f5;fontColor=#333333;strokeColor=#666666;" vertex="1" parent="34CZIzxD8-mcYaRB7CDS-21">
          <mxGeometry x="230" y="536" width="110" height="50" as="geometry" />
        </mxCell>
        <mxCell id="00PjSPJ0xW0J_4Vm_WQb-17" value="Yes" style="text;html=1;align=center;verticalAlign=middle;whiteSpace=wrap;rounded=0;" vertex="1" parent="34CZIzxD8-mcYaRB7CDS-21">
          <mxGeometry x="205" y="486" width="60" height="30" as="geometry" />
        </mxCell>
        <mxCell id="00PjSPJ0xW0J_4Vm_WQb-18" style="edgeStyle=orthogonalEdgeStyle;rounded=0;orthogonalLoop=1;jettySize=auto;html=1;entryX=0;entryY=0;entryDx=0;entryDy=60;entryPerimeter=0;fillColor=#f0a30a;strokeColor=#BD7000;strokeWidth=2;endArrow=block;endFill=1;" edge="1" parent="34CZIzxD8-mcYaRB7CDS-21" source="00PjSPJ0xW0J_4Vm_WQb-7" target="00PjSPJ0xW0J_4Vm_WQb-4">
          <mxGeometry relative="1" as="geometry">
            <Array as="points">
              <mxPoint x="80" y="341" />
              <mxPoint x="80" y="236" />
            </Array>
          </mxGeometry>
        </mxCell>
        <mxCell id="34CZIzxD8-mcYaRB7CDS-42" value="" style="endArrow=ERmandOne;html=1;rounded=0;fillColor=#f0a30a;strokeColor=#BD7000;dashed=1;strokeWidth=2;fontSize=13;align=right;fontStyle=0;endFill=0;" parent="1" edge="1">
          <mxGeometry width="50" height="50" relative="1" as="geometry">
            <mxPoint x="885" y="119.20999999999998" as="sourcePoint" />
            <mxPoint x="941" y="119" as="targetPoint" />
          </mxGeometry>
        </mxCell>
        <mxCell id="34CZIzxD8-mcYaRB7CDS-44" value="Return pending status" style="text;html=1;align=right;verticalAlign=middle;whiteSpace=wrap;rounded=0;fontSize=13;fontStyle=0" parent="1" vertex="1">
          <mxGeometry x="730" y="104" width="150" height="30" as="geometry" />
        </mxCell>
        <mxCell id="34CZIzxD8-mcYaRB7CDS-45" value="" style="edgeStyle=orthogonalEdgeStyle;rounded=0;orthogonalLoop=1;jettySize=auto;html=1;endArrow=block;endFill=1;fillColor=#d5e8d4;strokeColor=#82b366;strokeWidth=2;fontSize=13;align=right;fontStyle=0" parent="1" edge="1">
          <mxGeometry relative="1" as="geometry">
            <mxPoint x="884.5" y="149" as="sourcePoint" />
            <mxPoint x="940.5" y="149" as="targetPoint" />
          </mxGeometry>
        </mxCell>
        <mxCell id="34CZIzxD8-mcYaRB7CDS-46" value="" style="edgeStyle=orthogonalEdgeStyle;rounded=0;orthogonalLoop=1;jettySize=auto;html=1;endArrow=block;endFill=1;fillColor=#f0a30a;strokeColor=#BD7000;strokeWidth=2;fontSize=13;align=right;fontStyle=0" parent="1" edge="1">
          <mxGeometry relative="1" as="geometry">
            <mxPoint x="884.5" y="179" as="sourcePoint" />
            <mxPoint x="940.5" y="179" as="targetPoint" />
          </mxGeometry>
        </mxCell>
        <mxCell id="34CZIzxD8-mcYaRB7CDS-47" value="Status: Success" style="text;html=1;align=right;verticalAlign=middle;whiteSpace=wrap;rounded=0;fontSize=13;fontStyle=0" parent="1" vertex="1">
          <mxGeometry x="760.5" y="134" width="119" height="30" as="geometry" />
        </mxCell>
        <mxCell id="34CZIzxD8-mcYaRB7CDS-48" value="Status: Pending" style="text;html=1;align=right;verticalAlign=middle;whiteSpace=wrap;rounded=0;fontSize=13;fontStyle=0" parent="1" vertex="1">
          <mxGeometry x="759.5" y="164" width="119" height="30" as="geometry" />
        </mxCell>
      </root>
    </mxGraphModel>
  </diagram>
</mxfile>
